<?xml version="1.0" encoding="UTF-8"?>
<!DOCTYPE svg PUBLIC "-//W3C//DTD SVG 1.1//EN" "http://www.w3.org/Graphics/SVG/1.1/DTD/svg11.dtd">
<svg xmlns="http://www.w3.org/2000/svg" version="1.1" width="16px" height="16px" style="shape-rendering:geometricPrecision; text-rendering:geometricPrecision; image-rendering:optimizeQuality; fill-rule:evenodd; clip-rule:evenodd" xmlns:xlink="http://www.w3.org/1999/xlink">
<g><path style="opacity:0.739" fill="#010101" d="M 1.5,1.5 C 1.5,5.16667 1.5,8.83333 1.5,12.5C 2.83333,12.5 4.16667,12.5 5.5,12.5C 6.5,12.5 7.5,12.5 8.5,12.5C 9.83333,12.5 11.1667,12.5 12.5,12.5C 13.4816,9.03808 13.815,5.37141 13.5,1.5C 14.1667,1.83333 14.8333,2.16667 15.5,2.5C 15.5,5.83333 15.5,9.16667 15.5,12.5C 14.1667,13.1667 13.1667,14.1667 12.5,15.5C 9.16667,15.5 5.83333,15.5 2.5,15.5C 1.83333,14.1667 0.833333,13.1667 -0.5,12.5C -0.5,9.16667 -0.5,5.83333 -0.5,2.5C 0.166667,2.16667 0.833333,1.83333 1.5,1.5 Z"/></g>
<g><path style="opacity:1" fill="#0b0b0c" d="M 2.5,-0.5 C 5.83333,-0.5 9.16667,-0.5 12.5,-0.5C 12.8333,0.166667 13.1667,0.833333 13.5,1.5C 13.815,5.37141 13.4816,9.03808 12.5,12.5C 12.5,9.16667 12.5,5.83333 12.5,2.5C 11.5,2.5 10.5,2.5 9.5,2.5C 6.98989,2.05351 4.98989,2.72017 3.5,4.5C 2.16667,6.5 2.16667,8.5 3.5,10.5C 4.16667,11.1667 4.83333,11.8333 5.5,12.5C 4.16667,12.5 2.83333,12.5 1.5,12.5C 1.5,8.83333 1.5,5.16667 1.5,1.5C 1.83333,0.833333 2.16667,0.166667 2.5,-0.5 Z"/></g>
<g><path style="opacity:1" fill="#4c3334" d="M 9.5,2.5 C 9.9528,3.45837 10.6195,4.2917 11.5,5C 10.6195,5.7083 9.9528,6.54163 9.5,7.5C 8.84851,6.90935 8.18185,6.24269 7.5,5.5C 6.81815,6.24269 6.15149,6.90935 5.5,7.5C 4.83333,6.5 4.16667,5.5 3.5,4.5C 4.98989,2.72017 6.98989,2.05351 9.5,2.5 Z"/></g>
<g><path style="opacity:1" fill="#2d2a2a" d="M 3.5,4.5 C 4.16667,5.5 4.83333,6.5 5.5,7.5C 4.44886,8.22235 3.78219,9.22235 3.5,10.5C 2.16667,8.5 2.16667,6.5 3.5,4.5 Z"/></g>
<g><path style="opacity:1" fill="#222021" d="M 9.5,2.5 C 10.5,2.5 11.5,2.5 12.5,2.5C 12.5,5.83333 12.5,9.16667 12.5,12.5C 11.1667,12.5 9.83333,12.5 8.5,12.5C 10.5992,11.1851 10.9326,9.51843 9.5,7.5C 9.9528,6.54163 10.6195,5.7083 11.5,5C 10.6195,4.2917 9.9528,3.45837 9.5,2.5 Z"/></g>
<g><path style="opacity:1" fill="#5b5956" d="M 9.5,7.5 C 10.9326,9.51843 10.5992,11.1851 8.5,12.5C 7.5,12.5 6.5,12.5 5.5,12.5C 4.83333,11.8333 4.16667,11.1667 3.5,10.5C 3.78219,9.22235 4.44886,8.22235 5.5,7.5C 6.15149,6.90935 6.81815,6.24269 7.5,5.5C 8.18185,6.24269 8.84851,6.90935 9.5,7.5 Z"/></g>
</svg>
