<?xml version="1.0" encoding="UTF-8"?>
<!DOCTYPE svg PUBLIC "-//W3C//DTD SVG 1.1//EN" "http://www.w3.org/Graphics/SVG/1.1/DTD/svg11.dtd">
<svg xmlns="http://www.w3.org/2000/svg" version="1.1" width="89px" height="88px" style="shape-rendering:geometricPrecision; text-rendering:geometricPrecision; image-rendering:optimizeQuality; fill-rule:evenodd; clip-rule:evenodd" xmlns:xlink="http://www.w3.org/1999/xlink">
<g><path style="opacity:1" fill="#161719" d="M -0.5,-0.5 C 10.8333,-0.5 22.1667,-0.5 33.5,-0.5C 33.5299,0.497222 33.0299,1.16389 32,1.5C 28.9679,1.76707 26.3013,2.76707 24,4.5C 23.6667,3.83333 23.3333,3.16667 23,2.5C 22.7978,4.2556 22.2978,5.92226 21.5,7.5C 20.4679,5.96037 19.1346,5.46037 17.5,6C 18.7836,7.29749 18.6169,8.46415 17,9.5C 15.2942,8.69213 14.4609,7.3588 14.5,5.5C 11.7889,6.69496 9.45553,8.52829 7.5,11C 8.83333,11.3333 10.1667,11.6667 11.5,12C 10.5842,12.2784 9.91753,12.7784 9.5,13.5C 6.37512,13.8182 3.54178,14.8182 1,16.5C 0.617425,15.944 0.117425,15.6107 -0.5,15.5C -0.5,10.1667 -0.5,4.83333 -0.5,-0.5 Z"/></g>
<g><path style="opacity:1" fill="#1a1b1f" d="M 40.5,-0.5 C 56.5,-0.5 72.5,-0.5 88.5,-0.5C 88.5,4.5 88.5,9.5 88.5,14.5C 86.0799,14.2924 83.7466,14.6258 81.5,15.5C 80.8076,14.9747 80.3076,14.3081 80,13.5C 79.1041,16.025 79.6041,18.1917 81.5,20C 79.9262,20.6987 78.5929,20.3654 77.5,19C 78.7472,17.5064 78.7472,16.0064 77.5,14.5C 76.914,14.7093 76.414,15.0426 76,15.5C 74.1947,13.5178 72.028,12.1845 69.5,11.5C 69.5,11.1667 69.5,10.8333 69.5,10.5C 69.2865,8.85613 69.6198,7.35613 70.5,6C 65.848,6.30941 62.0147,4.80941 59,1.5C 57.5944,2.66816 56.4277,2.33482 55.5,0.5C 50.2561,2.0208 45.2561,1.68747 40.5,-0.5 Z"/></g>
<g><path style="opacity:1" fill="#161517" d="M 33.5,-0.5 C 35.8333,-0.5 38.1667,-0.5 40.5,-0.5C 45.2561,1.68747 50.2561,2.0208 55.5,0.5C 56.4277,2.33482 57.5944,2.66816 59,1.5C 62.0147,4.80941 65.848,6.30941 70.5,6C 69.6198,7.35613 69.2865,8.85613 69.5,10.5C 50.1024,-1.60934 32.1024,0.0573225 15.5,15.5C 13.1009,16.5074 11.1009,15.8407 9.5,13.5C 9.91753,12.7784 10.5842,12.2784 11.5,12C 10.1667,11.6667 8.83333,11.3333 7.5,11C 9.45553,8.52829 11.7889,6.69496 14.5,5.5C 14.4609,7.3588 15.2942,8.69213 17,9.5C 18.6169,8.46415 18.7836,7.29749 17.5,6C 19.1346,5.46037 20.4679,5.96037 21.5,7.5C 22.2978,5.92226 22.7978,4.2556 23,2.5C 23.3333,3.16667 23.6667,3.83333 24,4.5C 26.3013,2.76707 28.9679,1.76707 32,1.5C 33.0299,1.16389 33.5299,0.497222 33.5,-0.5 Z"/></g>
<g><path style="opacity:1" fill="#41272a" d="M 48.5,5.5 C 48.4828,7.56475 48.1495,9.56475 47.5,11.5C 46.71,10.3915 46.21,9.05814 46,7.5C 45.3333,9.5 44.6667,11.5 44,13.5C 42.6667,11.8333 41.3333,10.1667 40,8.5C 38.7255,11.6995 38.5588,15.0328 39.5,18.5C 38.5178,19.1408 37.5178,19.8075 36.5,20.5C 33.8531,16.5183 34.1864,12.685 37.5,9C 35.2319,8.91014 33.7319,10.0768 33,12.5C 32.5065,14.1341 32.3398,15.8008 32.5,17.5C 31.8333,16.1667 31.1667,14.8333 30.5,13.5C 30.631,12.7611 30.4643,12.0944 30,11.5C 23.2341,15.4152 18.4008,20.4152 15.5,26.5C 13.8333,26.5 12.1667,26.5 10.5,26.5C 10.5,25.1667 10.5,23.8333 10.5,22.5C 11.1237,20.246 12.457,18.5794 14.5,17.5C 15.9778,17.762 17.3112,17.4287 18.5,16.5C 19.1279,14.7419 20.1279,13.2419 21.5,12C 26.4118,10.0712 31.0784,7.73784 35.5,5C 39.5332,4.85283 43.8665,5.01949 48.5,5.5 Z"/></g>
<g><path style="opacity:1" fill="#38262a" d="M 69.5,10.5 C 69.5,10.8333 69.5,11.1667 69.5,11.5C 72.5351,14.6986 75.3684,18.0319 78,21.5C 78.7914,22.745 79.2914,24.0783 79.5,25.5C 79.5,26.8333 79.5,28.1667 79.5,29.5C 78.1667,29.5 76.8333,29.5 75.5,29.5C 77.9442,27.0994 78.1109,24.4328 76,21.5C 72.5774,19.0425 69.7441,16.0425 67.5,12.5C 65.9411,11.9264 64.4411,11.2598 63,10.5C 62.1841,11.8228 61.0174,12.4894 59.5,12.5C 59.6495,11.448 59.4828,10.448 59,9.5C 58.8038,11.2861 57.9705,12.6195 56.5,13.5C 55.2528,11.9936 55.2528,10.4936 56.5,9C 55.2559,8.54392 54.4226,9.04392 54,10.5C 53.0475,8.40783 51.7141,8.0745 50,9.5C 49.79,7.94186 49.29,6.60853 48.5,5.5C 43.8665,5.01949 39.5332,4.85283 35.5,5C 31.0784,7.73784 26.4118,10.0712 21.5,12C 20.1279,13.2419 19.1279,14.7419 18.5,16.5C 17.3112,17.4287 15.9778,17.762 14.5,17.5C 14.8333,16.8333 15.1667,16.1667 15.5,15.5C 32.1024,0.0573225 50.1024,-1.60934 69.5,10.5 Z"/></g>
<g><path style="opacity:1" fill="#161516" d="M 9.5,13.5 C 11.1009,15.8407 13.1009,16.5074 15.5,15.5C 15.1667,16.1667 14.8333,16.8333 14.5,17.5C 12.457,18.5794 11.1237,20.246 10.5,22.5C 6.33013,29.8458 4.33013,37.8458 4.5,46.5C 4.86025,51.3373 5.86025,56.004 7.5,60.5C 6.32627,61.5137 5.6596,62.847 5.5,64.5C 3.6495,63.1336 3.31617,61.467 4.5,59.5C 2.35635,55.2877 1.52301,50.9543 2,46.5C 1.2917,47.3805 0.458367,48.0472 -0.5,48.5C -0.5,37.5 -0.5,26.5 -0.5,15.5C 0.117425,15.6107 0.617425,15.944 1,16.5C 3.54178,14.8182 6.37512,13.8182 9.5,13.5 Z"/></g>
<g><path style="opacity:1" fill="#665152" d="M 48.5,5.5 C 49.29,6.60853 49.79,7.94186 50,9.5C 51.7141,8.0745 53.0475,8.40783 54,10.5C 54.4226,9.04392 55.2559,8.54392 56.5,9C 55.2528,10.4936 55.2528,11.9936 56.5,13.5C 57.9705,12.6195 58.8038,11.2861 59,9.5C 59.4828,10.448 59.6495,11.448 59.5,12.5C 57.1139,14.5356 55.1139,16.2022 53.5,17.5C 52.1932,18.1534 50.8599,18.8201 49.5,19.5C 49.2129,18.7997 48.8795,18.1331 48.5,17.5C 48.7947,15.2646 48.4614,13.2646 47.5,11.5C 48.1495,9.56475 48.4828,7.56475 48.5,5.5 Z"/></g>
<g><path style="opacity:1" fill="#776061" d="M 47.5,11.5 C 48.4614,13.2646 48.7947,15.2646 48.5,17.5C 47.6981,16.0484 47.1981,14.3817 47,12.5C 45.938,15.029 45.1047,17.6957 44.5,20.5C 43.8133,18.7256 42.9799,17.0589 42,15.5C 41.3828,16.4491 41.5494,17.2825 42.5,18C 41.552,18.4828 40.552,18.6495 39.5,18.5C 38.5588,15.0328 38.7255,11.6995 40,8.5C 41.3333,10.1667 42.6667,11.8333 44,13.5C 44.6667,11.5 45.3333,9.5 46,7.5C 46.21,9.05814 46.71,10.3915 47.5,11.5 Z"/></g>
<g><path style="opacity:1" fill="#896f6f" d="M 39.5,18.5 C 38.9283,21.2436 37.2617,22.0769 34.5,21C 33.695,19.8873 33.0283,18.7206 32.5,17.5C 32.3398,15.8008 32.5065,14.1341 33,12.5C 33.7319,10.0768 35.2319,8.91014 37.5,9C 34.1864,12.685 33.8531,16.5183 36.5,20.5C 37.5178,19.8075 38.5178,19.1408 39.5,18.5 Z"/></g>
<g><path style="opacity:1" fill="#452c2d" d="M 48.5,17.5 C 48.8795,18.1331 49.2129,18.7997 49.5,19.5C 50.8599,18.8201 52.1932,18.1534 53.5,17.5C 52.4996,20.328 51.8329,22.9946 51.5,25.5C 54.7492,32.4357 56.2492,39.769 56,47.5C 57.883,44.9756 60.383,43.6423 63.5,43.5C 62.2003,46.4323 60.2003,48.7656 57.5,50.5C 57.1667,50.5 56.8333,50.5 56.5,50.5C 54.8602,47.0901 53.8602,43.4235 53.5,39.5C 52.5958,34.3588 50.5958,29.6921 47.5,25.5C 44.2423,24.5827 40.909,24.2493 37.5,24.5C 37.5,25.5 37.5,26.5 37.5,27.5C 37.1667,27.5 36.8333,27.5 36.5,27.5C 33.509,27.1663 31.1757,28.1663 29.5,30.5C 27.1172,28.4539 25.1172,26.1205 23.5,23.5C 23.6082,22.5581 23.9415,21.7247 24.5,21C 25.8333,20.6667 27.1667,20.3333 28.5,20C 28.1667,19.6667 27.8333,19.3333 27.5,19C 30.8204,17.7387 31.1537,16.072 28.5,14C 29.0944,13.5357 29.7611,13.369 30.5,13.5C 31.1667,14.8333 31.8333,16.1667 32.5,17.5C 33.0283,18.7206 33.695,19.8873 34.5,21C 37.2617,22.0769 38.9283,21.2436 39.5,18.5C 40.552,18.6495 41.552,18.4828 42.5,18C 41.5494,17.2825 41.3828,16.4491 42,15.5C 42.9799,17.0589 43.8133,18.7256 44.5,20.5C 45.1047,17.6957 45.938,15.029 47,12.5C 47.1981,14.3817 47.6981,16.0484 48.5,17.5 Z"/></g>
<g><path style="opacity:1" fill="#18191a" d="M 69.5,11.5 C 72.028,12.1845 74.1947,13.5178 76,15.5C 76.414,15.0426 76.914,14.7093 77.5,14.5C 78.7472,16.0064 78.7472,17.5064 77.5,19C 78.5929,20.3654 79.9262,20.6987 81.5,20C 79.6041,18.1917 79.1041,16.025 80,13.5C 80.3076,14.3081 80.8076,14.9747 81.5,15.5C 83.7466,14.6258 86.0799,14.2924 88.5,14.5C 88.5,35.8333 88.5,57.1667 88.5,78.5C 86.549,78.7733 85.049,78.1066 84,76.5C 82.4157,77.8613 80.5824,78.528 78.5,78.5C 78.6495,77.448 78.4828,76.448 78,75.5C 76.9887,76.3366 75.8221,76.67 74.5,76.5C 74.8808,78.9418 74.2141,79.6085 72.5,78.5C 71.2299,79.5622 70.0633,80.5622 69,81.5C 67.692,80.8487 66.8586,81.5154 66.5,83.5C 65.448,83.6495 64.448,83.4828 63.5,83C 64.9733,82.2904 65.6399,81.1238 65.5,79.5C 67.1238,79.6399 68.2904,78.9733 69,77.5C 70.2988,77.9662 71.7988,77.9662 73.5,77.5C 73.3505,76.448 73.5172,75.448 74,74.5C 74.3333,74.8333 74.6667,75.1667 75,75.5C 74.9461,72.8094 76.1128,70.9761 78.5,70C 78.1667,69.6667 77.8333,69.3333 77.5,69C 79.6848,67.5271 81.3515,65.5271 82.5,63C 82.3552,62.228 82.0219,61.5613 81.5,61C 83.0466,58.227 84.0466,55.227 84.5,52C 83.9056,51.5357 83.2389,51.369 82.5,51.5C 83.2836,48.9848 82.617,46.6515 80.5,44.5C 81.8135,42.4816 81.1468,41.3149 78.5,41C 79.4367,38.2935 80.7701,35.7935 82.5,33.5C 81.8657,30.5844 80.8657,27.9178 79.5,25.5C 79.2914,24.0783 78.7914,22.745 78,21.5C 75.3684,18.0319 72.5351,14.6986 69.5,11.5 Z"/></g>
<g><path style="opacity:1" fill="#48292e" d="M 75.5,29.5 C 68.115,30.0932 64.615,34.4266 65,42.5C 64.6174,43.056 64.1174,43.3893 63.5,43.5C 60.383,43.6423 57.883,44.9756 56,47.5C 56.2492,39.769 54.7492,32.4357 51.5,25.5C 51.8329,22.9946 52.4996,20.328 53.5,17.5C 55.1139,16.2022 57.1139,14.5356 59.5,12.5C 61.0174,12.4894 62.1841,11.8228 63,10.5C 64.4411,11.2598 65.9411,11.9264 67.5,12.5C 69.7441,16.0425 72.5774,19.0425 76,21.5C 78.1109,24.4328 77.9442,27.0994 75.5,29.5 Z"/></g>
<g><path style="opacity:1" fill="#483f38" d="M 36.5,27.5 C 36.8333,27.5 37.1667,27.5 37.5,27.5C 39.8333,27.5 42.1667,27.5 44.5,27.5C 42.7776,30.91 40.6109,31.2434 38,28.5C 37.5521,30.4089 38.3855,31.5756 40.5,32C 39.4366,33.1882 38.1033,33.6882 36.5,33.5C 35.8333,32.8333 35.1667,32.1667 34.5,31.5C 36.1765,30.8166 36.8432,29.4832 36.5,27.5 Z"/></g>
<g><path style="opacity:1" fill="#6f5847" d="M 36.5,27.5 C 36.8432,29.4832 36.1765,30.8166 34.5,31.5C 32.5853,31.7845 30.9187,31.4511 29.5,30.5C 31.1757,28.1663 33.509,27.1663 36.5,27.5 Z"/></g>
<g><path style="opacity:1" fill="#797470" d="M 53.5,39.5 C 51.2258,40.9516 49.7258,40.285 49,37.5C 48.4646,39.2705 47.6313,39.6039 46.5,38.5C 44.9893,36.1625 45.3227,35.4958 47.5,36.5C 48.5,36.1667 49.1667,35.5 49.5,34.5C 48.4699,34.4455 47.3033,34.1122 46,33.5C 45.8726,32.2234 46.3726,31.0567 47.5,30C 47.2517,28.2509 46.2517,27.4176 44.5,27.5C 42.1667,27.5 39.8333,27.5 37.5,27.5C 37.5,26.5 37.5,25.5 37.5,24.5C 40.909,24.2493 44.2423,24.5827 47.5,25.5C 50.5958,29.6921 52.5958,34.3588 53.5,39.5 Z"/></g>
<g><path style="opacity:1" fill="#4e3030" d="M 30.5,13.5 C 29.7611,13.369 29.0944,13.5357 28.5,14C 31.1537,16.072 30.8204,17.7387 27.5,19C 27.8333,19.3333 28.1667,19.6667 28.5,20C 27.1667,20.3333 25.8333,20.6667 24.5,21C 23.9415,21.7247 23.6082,22.5581 23.5,23.5C 25.1172,26.1205 27.1172,28.4539 29.5,30.5C 30.9187,31.4511 32.5853,31.7845 34.5,31.5C 35.1667,32.1667 35.8333,32.8333 36.5,33.5C 37.7143,36.1293 37.7143,38.796 36.5,41.5C 36.2964,43.6854 35.6298,45.6854 34.5,47.5C 33.009,47.0986 31.3423,46.932 29.5,47C 24.6779,41.8453 22.1779,35.6786 22,28.5C 20.2111,26.771 18.0444,26.1043 15.5,26.5C 18.4008,20.4152 23.2341,15.4152 30,11.5C 30.4643,12.0944 30.631,12.7611 30.5,13.5 Z"/></g>
<g><path style="opacity:1" fill="#8d8b87" d="M 44.5,27.5 C 46.2517,27.4176 47.2517,28.2509 47.5,30C 46.3726,31.0567 45.8726,32.2234 46,33.5C 47.3033,34.1122 48.4699,34.4455 49.5,34.5C 49.1667,35.5 48.5,36.1667 47.5,36.5C 45.3227,35.4958 44.9893,36.1625 46.5,38.5C 47.6313,39.6039 48.4646,39.2705 49,37.5C 49.7258,40.285 51.2258,40.9516 53.5,39.5C 53.8602,43.4235 54.8602,47.0901 56.5,50.5C 55.8333,50.5 55.5,50.8333 55.5,51.5C 53.8561,51.7135 52.3561,51.3802 51,50.5C 50.5814,51.6721 49.9147,52.6721 49,53.5C 48.0039,51.256 46.5039,49.4227 44.5,48C 45.1258,47.2496 45.6258,46.4162 46,45.5C 46.5354,47.2705 47.3687,47.6039 48.5,46.5C 47.8108,44.556 47.3108,42.556 47,40.5C 45.0217,42.3985 43.3551,41.7318 42,38.5C 40.8261,40.6709 38.9928,41.6709 36.5,41.5C 37.7143,38.796 37.7143,36.1293 36.5,33.5C 38.1033,33.6882 39.4366,33.1882 40.5,32C 38.3855,31.5756 37.5521,30.4089 38,28.5C 40.6109,31.2434 42.7776,30.91 44.5,27.5 Z"/></g>
<g><path style="opacity:1" fill="#232222" d="M 79.5,25.5 C 80.8657,27.9178 81.8657,30.5844 82.5,33.5C 80.7701,35.7935 79.4367,38.2935 78.5,41C 81.1468,41.3149 81.8135,42.4816 80.5,44.5C 82.617,46.6515 83.2836,48.9848 82.5,51.5C 81.8501,51.1961 81.1835,50.8627 80.5,50.5C 79.6364,52.1965 78.3031,53.3632 76.5,54C 78.5951,54.5556 78.7618,55.0556 77,55.5C 74.1857,52.571 71.3524,52.2376 68.5,54.5C 65.1405,53.7904 63.3071,55.1238 63,58.5C 62.1627,56.9926 60.9961,56.4926 59.5,57C 57.771,58.7889 57.1043,60.9556 57.5,63.5C 56.4909,66.0486 55.6575,68.7152 55,71.5C 54.6411,68.4557 53.9745,68.1224 53,70.5C 52.5357,69.9056 52.369,69.2389 52.5,68.5C 52.6309,67.6236 52.2975,66.9569 51.5,66.5C 50.4728,67.7914 49.4728,67.7914 48.5,66.5C 48.5,66.1667 48.5,65.8333 48.5,65.5C 52.4866,65.3482 53.9866,63.3482 53,59.5C 52.6174,58.944 52.1174,58.6107 51.5,58.5C 52.9846,55.4307 54.9846,52.764 57.5,50.5C 60.2003,48.7656 62.2003,46.4323 63.5,43.5C 64.1174,43.3893 64.6174,43.056 65,42.5C 64.615,34.4266 68.115,30.0932 75.5,29.5C 76.8333,29.5 78.1667,29.5 79.5,29.5C 79.5,28.1667 79.5,26.8333 79.5,25.5 Z"/></g>
<g><path style="opacity:1" fill="#2a2827" d="M 10.5,22.5 C 10.5,23.8333 10.5,25.1667 10.5,26.5C 12.1667,26.5 13.8333,26.5 15.5,26.5C 18.0444,26.1043 20.2111,26.771 22,28.5C 22.1779,35.6786 24.6779,41.8453 29.5,47C 31.3423,46.932 33.009,47.0986 34.5,47.5C 33.7286,49.1136 32.7286,50.6136 31.5,52C 32.9299,54.0558 34.5966,54.8891 36.5,54.5C 36.1389,57.6919 34.4722,59.8586 31.5,61C 33.1554,62.4443 33.822,64.2776 33.5,66.5C 31.742,66.1231 30.0754,65.4565 28.5,64.5C 27.3037,66.1446 26.3037,67.8113 25.5,69.5C 25.3253,67.3792 25.6586,65.3792 26.5,63.5C 27.8976,62.2233 28.5643,60.5566 28.5,58.5C 28.3601,56.9704 27.6935,55.9704 26.5,55.5C 25.8106,54.2264 24.9772,54.2264 24,55.5C 21.9764,50.8428 19.8097,50.5095 17.5,54.5C 16.3172,53.4955 14.9839,52.6622 13.5,52C 13.1654,50.836 13.1654,49.5026 13.5,48C 8.82178,47.8033 8.48845,46.8033 12.5,45C 10.9556,43.8129 9.28891,43.4795 7.5,44C 8.16667,44.3333 8.83333,44.6667 9.5,45C 7.84552,45.6077 6.17885,46.1077 4.5,46.5C 4.33013,37.8458 6.33013,29.8458 10.5,22.5 Z"/></g>
<g><path style="opacity:1" fill="#1d1d1d" d="M 5.5,64.5 C 8.37016,71.3724 13.0368,76.7057 19.5,80.5C 20.3857,81.325 20.719,82.325 20.5,83.5C 13.5,83.5 6.5,83.5 -0.5,83.5C -0.5,71.8333 -0.5,60.1667 -0.5,48.5C 0.458367,48.0472 1.2917,47.3805 2,46.5C 1.52301,50.9543 2.35635,55.2877 4.5,59.5C 3.31617,61.467 3.6495,63.1336 5.5,64.5 Z"/></g>
<g><path style="opacity:1" fill="#959490" d="M 55.5,51.5 C 51.9255,53.5648 48.2588,55.8982 44.5,58.5C 42.33,57.136 40.1633,56.136 38,55.5C 37.5,56 37,56.5 36.5,57C 38.0368,58.1096 38.7035,59.6096 38.5,61.5C 39.791,61.7373 40.791,61.404 41.5,60.5C 44.5,60.1667 45.8333,61.5 45.5,64.5C 41.6369,63.2922 38.3036,64.2922 35.5,67.5C 34.8333,67.1667 34.1667,66.8333 33.5,66.5C 33.822,64.2776 33.1554,62.4443 31.5,61C 34.4722,59.8586 36.1389,57.6919 36.5,54.5C 34.5966,54.8891 32.9299,54.0558 31.5,52C 32.7286,50.6136 33.7286,49.1136 34.5,47.5C 35.6298,45.6854 36.2964,43.6854 36.5,41.5C 38.9928,41.6709 40.8261,40.6709 42,38.5C 43.3551,41.7318 45.0217,42.3985 47,40.5C 47.3108,42.556 47.8108,44.556 48.5,46.5C 47.3687,47.6039 46.5354,47.2705 46,45.5C 45.6258,46.4162 45.1258,47.2496 44.5,48C 46.5039,49.4227 48.0039,51.256 49,53.5C 49.9147,52.6721 50.5814,51.6721 51,50.5C 52.3561,51.3802 53.8561,51.7135 55.5,51.5 Z"/></g>
<g><path style="opacity:1" fill="#848481" d="M 26.5,55.5 C 25.3433,58.3074 25.3433,60.9741 26.5,63.5C 25.6586,65.3792 25.3253,67.3792 25.5,69.5C 24.8333,69.8333 24.1667,70.1667 23.5,70.5C 20.7316,69.0491 19.0649,66.7158 18.5,63.5C 18.8457,62.3044 19.3457,62.3044 20,63.5C 20.1118,66.4471 21.6118,67.7804 24.5,67.5C 24.8504,64.5466 23.8504,62.2133 21.5,60.5C 20.9202,58.2512 19.5869,56.5846 17.5,55.5C 17.5,55.1667 17.5,54.8333 17.5,54.5C 19.8097,50.5095 21.9764,50.8428 24,55.5C 24.9772,54.2264 25.8106,54.2264 26.5,55.5 Z"/></g>
<g><path style="opacity:1" fill="#9a9997" d="M 26.5,55.5 C 27.6935,55.9704 28.3601,56.9704 28.5,58.5C 28.5643,60.5566 27.8976,62.2233 26.5,63.5C 25.3433,60.9741 25.3433,58.3074 26.5,55.5 Z"/></g>
<g><path style="opacity:1" fill="#262525" d="M 82.5,51.5 C 81.251,59.0433 78.251,65.7099 73.5,71.5C 72.3443,69.1761 71.3443,66.8428 70.5,64.5C 70.1667,63.5 69.5,62.8333 68.5,62.5C 66.5168,62.8432 65.1834,62.1765 64.5,60.5C 67.7756,59.8784 69.1089,57.8784 68.5,54.5C 71.3524,52.2376 74.1857,52.571 77,55.5C 78.7618,55.0556 78.5951,54.5556 76.5,54C 78.3031,53.3632 79.6364,52.1965 80.5,50.5C 81.1835,50.8627 81.8501,51.1961 82.5,51.5 Z"/></g>
<g><path style="opacity:1" fill="#333331" d="M 17.5,54.5 C 17.5,54.8333 17.5,55.1667 17.5,55.5C 16.7455,57.4663 15.5788,57.7996 14,56.5C 12.6025,59.714 10.7691,61.714 8.5,62.5C 7.66175,62.1583 7.32842,61.4916 7.5,60.5C 5.86025,56.004 4.86025,51.3373 4.5,46.5C 6.17885,46.1077 7.84552,45.6077 9.5,45C 8.83333,44.6667 8.16667,44.3333 7.5,44C 9.28891,43.4795 10.9556,43.8129 12.5,45C 8.48845,46.8033 8.82178,47.8033 13.5,48C 13.1654,49.5026 13.1654,50.836 13.5,52C 14.9839,52.6622 16.3172,53.4955 17.5,54.5 Z"/></g>
<g><path style="opacity:1" fill="#343530" d="M 44.5,58.5 C 43.5,59.1667 42.5,59.8333 41.5,60.5C 40.791,61.404 39.791,61.7373 38.5,61.5C 38.7035,59.6096 38.0368,58.1096 36.5,57C 37,56.5 37.5,56 38,55.5C 40.1633,56.136 42.33,57.136 44.5,58.5 Z"/></g>
<g><path style="opacity:1" fill="#838280" d="M 68.5,54.5 C 69.1089,57.8784 67.7756,59.8784 64.5,60.5C 63.8826,60.3893 63.3826,60.056 63,59.5C 62.0977,61.9269 61.2644,64.2603 60.5,66.5C 59.2719,65.6935 58.2719,64.6935 57.5,63.5C 57.1043,60.9556 57.771,58.7889 59.5,57C 60.9961,56.4926 62.1627,56.9926 63,58.5C 63.3071,55.1238 65.1405,53.7904 68.5,54.5 Z"/></g>
<g><path style="opacity:1" fill="#979893" d="M 51.5,58.5 C 52.1174,58.6107 52.6174,58.944 53,59.5C 53.9866,63.3482 52.4866,65.3482 48.5,65.5C 46.8516,63.5441 46.1849,61.2108 46.5,58.5C 48.1667,58.5 49.8333,58.5 51.5,58.5 Z"/></g>
<g><path style="opacity:1" fill="#474843" d="M 49.5,59.5 C 51.8075,60.405 51.8075,61.7383 49.5,63.5C 48.3744,62.1916 48.3744,60.8583 49.5,59.5 Z"/></g>
<g><path style="opacity:1" fill="#676765" d="M 68.5,62.5 C 69.5,62.8333 70.1667,63.5 70.5,64.5C 68.7708,65.1175 67.2708,66.1175 66,67.5C 66.2133,65.5999 67.0466,63.9333 68.5,62.5 Z"/></g>
<g><path style="opacity:1" fill="#959593" d="M 64.5,60.5 C 65.1834,62.1765 66.5168,62.8432 68.5,62.5C 67.0466,63.9333 66.2133,65.5999 66,67.5C 67.2708,66.1175 68.7708,65.1175 70.5,64.5C 70.344,71.3341 67.0106,74.0008 60.5,72.5C 59.181,70.4684 59.181,68.4684 60.5,66.5C 61.2644,64.2603 62.0977,61.9269 63,59.5C 63.3826,60.056 63.8826,60.3893 64.5,60.5 Z"/></g>
<g><path style="opacity:1" fill="#42423e" d="M 56.5,50.5 C 56.8333,50.5 57.1667,50.5 57.5,50.5C 54.9846,52.764 52.9846,55.4307 51.5,58.5C 49.8333,58.5 48.1667,58.5 46.5,58.5C 46.1849,61.2108 46.8516,63.5441 48.5,65.5C 48.5,65.8333 48.5,66.1667 48.5,66.5C 47.5657,67.7725 46.899,69.2725 46.5,71C 47.4091,72.7892 47.5758,74.6226 47,76.5C 44.6409,72.4232 43.1409,72.7566 42.5,77.5C 43.5,77.5 44.5,77.5 45.5,77.5C 44.1325,78.3063 42.7992,79.3063 41.5,80.5C 40.8933,80.3764 40.56,80.0431 40.5,79.5C 41.7879,77.9652 41.7879,76.2985 40.5,74.5C 40.1667,75.1667 39.8333,75.8333 39.5,76.5C 38.2638,75.7542 36.9305,75.4208 35.5,75.5C 35.5,74.8333 35.5,74.1667 35.5,73.5C 36.8734,73.6567 38.2068,73.49 39.5,73C 38.5842,72.7216 37.9175,72.2216 37.5,71.5C 39.5,71.5 40.5,70.5 40.5,68.5C 41.29,69.6085 41.79,70.9419 42,72.5C 42.6259,70.0087 43.4593,70.0087 44.5,72.5C 45.2922,70.5352 45.9588,68.5352 46.5,66.5C 46.1667,66.1667 45.8333,65.8333 45.5,65.5C 44.8333,66.5 44.1667,67.5 43.5,68.5C 42.2857,66.6203 40.9524,66.2869 39.5,67.5C 38.1667,67.5 36.8333,67.5 35.5,67.5C 38.3036,64.2922 41.6369,63.2922 45.5,64.5C 45.8333,61.5 44.5,60.1667 41.5,60.5C 42.5,59.8333 43.5,59.1667 44.5,58.5C 48.2588,55.8982 51.9255,53.5648 55.5,51.5C 55.5,50.8333 55.8333,50.5 56.5,50.5 Z"/></g>
<g><path style="opacity:1" fill="#91918d" d="M 40.5,68.5 C 40.5,67.8333 40.1667,67.5 39.5,67.5C 40.9524,66.2869 42.2857,66.6203 43.5,68.5C 44.1667,67.5 44.8333,66.5 45.5,65.5C 45.8333,65.8333 46.1667,66.1667 46.5,66.5C 45.9588,68.5352 45.2922,70.5352 44.5,72.5C 43.4593,70.0087 42.6259,70.0087 42,72.5C 41.79,70.9419 41.29,69.6085 40.5,68.5 Z"/></g>
<g><path style="opacity:1" fill="#a3a29e" d="M 21.5,60.5 C 23.8504,62.2133 24.8504,64.5466 24.5,67.5C 21.6118,67.7804 20.1118,66.4471 20,63.5C 19.3457,62.3044 18.8457,62.3044 18.5,63.5C 19.0649,66.7158 20.7316,69.0491 23.5,70.5C 22.3991,71.5983 21.0657,71.765 19.5,71C 15.6316,68.8383 14.1316,65.6717 15,61.5C 16.8976,59.3162 19.0642,58.9829 21.5,60.5 Z"/></g>
<g><path style="opacity:1" fill="#858581" d="M 48.5,66.5 C 49.4728,67.7914 50.4728,67.7914 51.5,66.5C 52.2975,66.9569 52.6309,67.6236 52.5,68.5C 50.334,71.4984 48.6674,74.8318 47.5,78.5C 46.8165,78.1373 46.1499,77.8039 45.5,77.5C 44.5,77.5 43.5,77.5 42.5,77.5C 43.1409,72.7566 44.6409,72.4232 47,76.5C 47.5758,74.6226 47.4091,72.7892 46.5,71C 46.899,69.2725 47.5657,67.7725 48.5,66.5 Z"/></g>
<g><path style="opacity:1" fill="#33322e" d="M 39.5,67.5 C 40.1667,67.5 40.5,67.8333 40.5,68.5C 40.5,70.5 39.5,71.5 37.5,71.5C 36.9569,71.44 36.6236,71.1067 36.5,70.5C 37.9935,69.8589 38.9935,68.8589 39.5,67.5 Z"/></g>
<g><path style="opacity:1" fill="#302f2d" d="M 57.5,63.5 C 58.2719,64.6935 59.2719,65.6935 60.5,66.5C 59.181,68.4684 59.181,70.4684 60.5,72.5C 67.0106,74.0008 70.344,71.3341 70.5,64.5C 71.3443,66.8428 72.3443,69.1761 73.5,71.5C 66.1479,79.8428 56.8146,84.5095 45.5,85.5C 42.9407,85.8016 40.6074,85.4682 38.5,84.5C 38.4021,82.4471 39.0687,80.7804 40.5,79.5C 40.56,80.0431 40.8933,80.3764 41.5,80.5C 42.7992,79.3063 44.1325,78.3063 45.5,77.5C 46.1499,77.8039 46.8165,78.1373 47.5,78.5C 48.6674,74.8318 50.334,71.4984 52.5,68.5C 52.369,69.2389 52.5357,69.9056 53,70.5C 53.9745,68.1224 54.6411,68.4557 55,71.5C 55.6575,68.7152 56.4909,66.0486 57.5,63.5 Z"/></g>
<g><path style="opacity:1" fill="#9a9995" d="M 35.5,67.5 C 36.8333,67.5 38.1667,67.5 39.5,67.5C 38.9935,68.8589 37.9935,69.8589 36.5,70.5C 36.6236,71.1067 36.9569,71.44 37.5,71.5C 37.9175,72.2216 38.5842,72.7216 39.5,73C 38.2068,73.49 36.8734,73.6567 35.5,73.5C 34.2584,71.6112 34.2584,69.6112 35.5,67.5 Z"/></g>
<g><path style="opacity:1" fill="#222323" d="M 88.5,78.5 C 88.5,80.1667 88.5,81.8333 88.5,83.5C 81.1667,83.5 73.8333,83.5 66.5,83.5C 66.8586,81.5154 67.692,80.8487 69,81.5C 70.0633,80.5622 71.2299,79.5622 72.5,78.5C 74.2141,79.6085 74.8808,78.9418 74.5,76.5C 75.8221,76.67 76.9887,76.3366 78,75.5C 78.4828,76.448 78.6495,77.448 78.5,78.5C 80.5824,78.528 82.4157,77.8613 84,76.5C 85.049,78.1066 86.549,78.7733 88.5,78.5 Z"/></g>
<g><path style="opacity:1" fill="#989795" d="M 40.5,79.5 C 39.4341,78.3079 38.6008,78.6412 38,80.5C 37.6339,78.5483 36.8005,76.8816 35.5,75.5C 36.9305,75.4208 38.2638,75.7542 39.5,76.5C 39.8333,75.8333 40.1667,75.1667 40.5,74.5C 41.7879,76.2985 41.7879,77.9652 40.5,79.5 Z"/></g>
<g><path style="opacity:1" fill="#3b3a37" d="M 17.5,55.5 C 19.5869,56.5846 20.9202,58.2512 21.5,60.5C 19.0642,58.9829 16.8976,59.3162 15,61.5C 14.1316,65.6717 15.6316,68.8383 19.5,71C 21.0657,71.765 22.3991,71.5983 23.5,70.5C 24.1667,70.1667 24.8333,69.8333 25.5,69.5C 26.3037,67.8113 27.3037,66.1446 28.5,64.5C 30.0754,65.4565 31.742,66.1231 33.5,66.5C 34.1667,66.8333 34.8333,67.1667 35.5,67.5C 34.2584,69.6112 34.2584,71.6112 35.5,73.5C 35.5,74.1667 35.5,74.8333 35.5,75.5C 36.8005,76.8816 37.6339,78.5483 38,80.5C 38.6008,78.6412 39.4341,78.3079 40.5,79.5C 39.0687,80.7804 38.4021,82.4471 38.5,84.5C 24.5438,82.5254 14.5438,75.1921 8.5,62.5C 10.7691,61.714 12.6025,59.714 14,56.5C 15.5788,57.7996 16.7455,57.4663 17.5,55.5 Z"/></g>
<g><path style="opacity:1" fill="#0f0e0d" d="M 7.5,60.5 C 7.32842,61.4916 7.66175,62.1583 8.5,62.5C 14.5438,75.1921 24.5438,82.5254 38.5,84.5C 40.6074,85.4682 42.9407,85.8016 45.5,85.5C 44.8333,86.1667 44.1667,86.8333 43.5,87.5C 38.1667,87.5 32.8333,87.5 27.5,87.5C 26.3998,86.4415 25.0664,85.6082 23.5,85C 15.5069,84.5003 7.50694,84.3336 -0.5,84.5C -0.5,84.1667 -0.5,83.8333 -0.5,83.5C 6.5,83.5 13.5,83.5 20.5,83.5C 20.719,82.325 20.3857,81.325 19.5,80.5C 13.0368,76.7057 8.37016,71.3724 5.5,64.5C 5.6596,62.847 6.32627,61.5137 7.5,60.5 Z"/></g>
<g><path style="opacity:1" fill="#212121" d="M -0.5,84.5 C 7.50694,84.3336 15.5069,84.5003 23.5,85C 25.0664,85.6082 26.3998,86.4415 27.5,87.5C 18.1667,87.5 8.83333,87.5 -0.5,87.5C -0.5,86.5 -0.5,85.5 -0.5,84.5 Z"/></g>
<g><path style="opacity:1" fill="#121211" d="M 82.5,51.5 C 83.2389,51.369 83.9056,51.5357 84.5,52C 84.0466,55.227 83.0466,58.227 81.5,61C 82.0219,61.5613 82.3552,62.228 82.5,63C 81.3515,65.5271 79.6848,67.5271 77.5,69C 77.8333,69.3333 78.1667,69.6667 78.5,70C 76.1128,70.9761 74.9461,72.8094 75,75.5C 74.6667,75.1667 74.3333,74.8333 74,74.5C 73.5172,75.448 73.3505,76.448 73.5,77.5C 71.7988,77.9662 70.2988,77.9662 69,77.5C 68.2904,78.9733 67.1238,79.6399 65.5,79.5C 65.6399,81.1238 64.9733,82.2904 63.5,83C 64.448,83.4828 65.448,83.6495 66.5,83.5C 73.8333,83.5 81.1667,83.5 88.5,83.5C 88.5,84.1667 88.5,84.8333 88.5,85.5C 79.8269,85.3336 71.1603,85.5002 62.5,86C 61.5842,86.2784 60.9175,86.7784 60.5,87.5C 54.8333,87.5 49.1667,87.5 43.5,87.5C 44.1667,86.8333 44.8333,86.1667 45.5,85.5C 56.8146,84.5095 66.1479,79.8428 73.5,71.5C 78.251,65.7099 81.251,59.0433 82.5,51.5 Z"/></g>
<g><path style="opacity:1" fill="#1d1e1f" d="M 88.5,85.5 C 88.5,86.1667 88.5,86.8333 88.5,87.5C 79.1667,87.5 69.8333,87.5 60.5,87.5C 60.9175,86.7784 61.5842,86.2784 62.5,86C 71.1603,85.5002 79.8269,85.3336 88.5,85.5 Z"/></g>
</svg>
